<svg width="13" height="13" viewBox="0 0 13 13" fill="none" xmlns="http://www.w3.org/2000/svg">
<path fill-rule="evenodd" clip-rule="evenodd" d="M7.59272 7.59272C6.1608 9.02464 3.8392 9.02464 2.40728 7.59272C0.975353 6.16079 0.975353 3.83919 2.40728 2.40727C3.8392 0.975345 6.1608 0.975345 7.59272 2.40727C9.02465 3.83919 9.02465 6.16079 7.59272 7.59272ZM8.03311 8.97568C6.07288 10.4751 3.25729 10.3284 1.46447 8.53553C-0.488155 6.5829 -0.488155 3.41708 1.46447 1.46446C3.41709 -0.488163 6.58291 -0.488163 8.53553 1.46446C10.3283 3.25721 10.4751 6.07262 8.97589 8.03284L12.5426 11.5995L11.5998 12.5423L8.03311 8.97568Z" fill="#999999"/>
</svg>
